<svg xmlns="http://www.w3.org/2000/svg" viewBox="0 0 750 500"><g id="freepik--background-simple--inject-26"><path d="M710.94,278.1s10-177.36-140.49-226.18-226.19-13-274,32.88-63.77,75.73-118.57,81.7S72.24,182.45,46.33,249.21s7,119.57,56.79,152.45,107.62-2,153.45,18.93,74.74,55.8,168.4,59.79,96.65-22.92,144.48-64.77S702,417.6,710.94,278.1Z" style="fill:#92E3A9"></path><path d="M710.94,278.1s10-177.36-140.49-226.18-226.19-13-274,32.88-63.77,75.73-118.57,81.7S72.24,182.45,46.33,249.21s7,119.57,56.79,152.45,107.62-2,153.45,18.93,74.74,55.8,168.4,59.79,96.65-22.92,144.48-64.77S702,417.6,710.94,278.1Z" style="fill:#fff;opacity:0.7000000000000001"></path></g><g id="freepik--Clouds--inject-26"><path d="M344.72,52.35c-.22-.66-.44-1.32-.68-2-8.84-24.58-50-26.27-50,3.93,0,5.82-14,0-19.2,7.57s.58,12.21-6.4,14.54-7.56-3.49-16.29-2.91-7.56,8.73-10.47,11.05-2.9,1.17-9.3,1.75-7.57,5.23-7.57,5.23h153s5.81-17.45-4.66-23.85S362.73,70,354.59,66.51C347.86,63.63,346.6,58.15,344.72,52.35Z" style="fill:none;stroke:#b2b2b2;stroke-linecap:round;stroke-linejoin:round"></path><path d="M350,85.16s3.17-9.8-4.61-17-15.85-3.17-18.15,0-2.31,9.22-6.05,9.8-2.88-6.34-10.95-4.61-4.9,9.79-8.64,11.52-3.75-4.61-8.94-2.59S287.78,88,287.78,88" style="fill:none;stroke:#b2b2b2;stroke-linecap:round;stroke-linejoin:round"></path><path d="M308.63,65.59a14.59,14.59,0,0,0-14.76-1.29c-8.34,3.85-4.49,11.87-8.34,13.8S279.76,77.78,275,80s-4.5,5.45-4.5,5.45" style="fill:none;stroke:#b2b2b2;stroke-linecap:round;stroke-linejoin:round"></path><path d="M584.18,109.52c-.13-.41-.27-.81-.41-1.22-5.39-15-30.44-16-30.44,2.4,0,3.54-8.51,0-11.7,4.61s.36,7.44-3.9,8.86-4.61-2.13-9.92-1.77-4.61,5.31-6.38,6.73-1.77.71-5.67,1.06-4.61,3.19-4.61,3.19h93.22s3.54-10.63-2.84-14.53-6.38,1.42-11.34-.71C586.09,116.39,585.32,113.05,584.18,109.52Z" style="fill:none;stroke:#b2b2b2;stroke-linecap:round;stroke-linejoin:round"></path><path d="M587.4,129.51a10.42,10.42,0,0,0-2.81-10.36c-4.74-4.39-9.65-1.93-11.06,0s-1.4,5.62-3.68,6-1.76-3.86-6.67-2.81-3,6-5.27,7-2.28-2.81-5.44-1.58-3,3.51-3,3.51" style="fill:none;stroke:#b2b2b2;stroke-linecap:round;stroke-linejoin:round"></path><path d="M562.19,117.58a8.88,8.88,0,0,0-9-.78c-5.09,2.34-2.74,7.23-5.09,8.4s-3.51-.19-6.45,1.18-2.73,3.32-2.73,3.32" style="fill:none;stroke:#b2b2b2;stroke-linecap:round;stroke-linejoin:round"></path><path d="M260.7,116.26c-.13-.4-.26-.81-.41-1.21-5.38-15-30.44-16-30.44,2.39,0,3.55-8.5,0-11.69,4.61s.35,7.44-3.9,8.86-4.61-2.13-9.93-1.77-4.61,5.32-6.38,6.73-1.77.71-5.67,1.07-4.61,3.19-4.61,3.19h93.22s3.55-10.64-2.83-14.54-6.38,1.42-11.34-.7C262.62,123.13,261.85,119.79,260.7,116.26Z" style="fill:none;stroke:#b2b2b2;stroke-linecap:round;stroke-linejoin:round"></path><path d="M263.93,136.25a10.42,10.42,0,0,0-2.81-10.36c-4.74-4.39-9.66-1.93-11.06,0s-1.41,5.62-3.69,6-1.75-3.86-6.67-2.81-3,6-5.27,7-2.28-2.81-5.44-1.58-3,3.51-3,3.51" style="fill:none;stroke:#b2b2b2;stroke-linecap:round;stroke-linejoin:round"></path><path d="M238.71,124.32a8.88,8.88,0,0,0-9-.78c-5.08,2.35-2.74,7.23-5.08,8.4s-3.52-.19-6.45,1.18-2.74,3.32-2.74,3.32" style="fill:none;stroke:#b2b2b2;stroke-linecap:round;stroke-linejoin:round"></path></g><g id="freepik--Trees--inject-26"><path d="M537.43,153.26c0,41.29-28.38,57.21-63.39,57.21s-63.4-15.92-63.4-57.21S439,19.31,474,19.31,537.43,112,537.43,153.26Z" style="fill:#92E3A9"></path><path d="M537.43,153.26c0,41.29-28.38,57.21-63.39,57.21s-63.4-15.92-63.4-57.21S439,19.31,474,19.31,537.43,112,537.43,153.26Z" style="fill:#fff;opacity:0.5"></path><polygon points="448.5 163.05 467.49 171.75 466.14 246.19 475.82 246.19 475.01 188.18 499.92 174.65 512.59 180.93 503.76 173.19 516.66 164.01 484.04 178.99 488.72 169.33 479.23 179.96 475.37 180.44 474.73 170.78 510.73 127.28 493.12 143.72 495.17 121.48 504.9 96.36 494.14 117.62 493.73 92.97 489.76 144.68 482.19 154.83 481.01 141.78 476.93 157.73 473.65 164.5 475.68 111.82 486.93 91.04 475.05 103.12 472.71 78.47 470.55 122.94 446.35 91.52 469.17 127.28 468.98 144.68 452.4 135.98 453.62 121.97 449.47 134.05 432.89 124.87 468.59 150.48 467.88 165.95 424.14 150.97 445.09 161.6 422.04 170.3 448.5 163.05" style="fill:#b2b2b2"></polygon><path d="M237.8,153.26c0,41.29-28.39,57.21-63.4,57.21S111,194.55,111,153.26,139.39,19.31,174.4,19.31,237.8,112,237.8,153.26Z" style="fill:#92E3A9"></path><path d="M237.8,153.26c0,41.29-28.39,57.21-63.4,57.21S111,194.55,111,153.26,139.39,19.31,174.4,19.31,237.8,112,237.8,153.26Z" style="fill:#fff;opacity:0.5"></path><polygon points="148.87 163.05 167.86 171.75 166.51 246.19 176.19 246.19 175.38 188.18 200.29 174.65 212.96 180.93 204.13 173.19 217.02 164.01 184.41 178.99 189.08 169.33 179.59 179.96 175.74 180.44 175.09 170.78 211.1 127.28 193.49 143.72 195.54 121.48 205.27 96.36 194.51 117.62 194.1 92.97 190.12 144.68 182.56 154.83 181.38 141.78 177.29 157.73 174.02 164.5 176.05 111.82 187.3 91.04 175.42 103.12 173.08 78.47 170.91 122.94 146.71 91.52 169.54 127.28 169.34 144.68 152.77 135.98 153.98 121.97 149.84 134.05 133.25 124.87 168.96 150.48 168.25 165.95 124.5 150.97 145.46 161.6 122.41 170.3 148.87 163.05" style="fill:#b2b2b2"></polygon></g><g id="freepik--Stairs--inject-26"><line x1="671.88" y1="327.5" x2="690.62" y2="327.5" style="fill:none;stroke:#263238;stroke-linecap:round;stroke-linejoin:round"></line><line x1="308.84" y1="327.5" x2="663.35" y2="327.5" style="fill:none;stroke:#263238;stroke-linecap:round;stroke-linejoin:round"></line><line x1="46.41" y1="327.5" x2="300.32" y2="327.5" style="fill:none;stroke:#263238;stroke-linecap:round;stroke-linejoin:round"></line><line x1="106.02" y1="405.67" x2="690.62" y2="405.67" style="fill:none;stroke:#263238;stroke-linecap:round;stroke-linejoin:round"></line><line x1="46.41" y1="405.67" x2="98.35" y2="405.67" style="fill:none;stroke:#263238;stroke-linecap:round;stroke-linejoin:round"></line><line x1="129.03" y1="245.9" x2="690.62" y2="245.9" style="fill:none;stroke:#263238;stroke-linecap:round;stroke-linejoin:round"></line><line x1="46.41" y1="245.9" x2="120.5" y2="245.9" style="fill:none;stroke:#263238;stroke-linecap:round;stroke-linejoin:round"></line></g><g id="freepik--lunch-box--inject-26"><rect x="416.5" y="291.76" width="47.6" height="35.74" rx="2.03" style="fill:#fff;stroke:#263238;stroke-linecap:round;stroke-linejoin:round"></rect><rect x="413.96" y="291.76" width="47.6" height="35.74" rx="2.03" style="fill:#fff;stroke:#263238;stroke-linecap:round;stroke-linejoin:round"></rect><path d="M421.76,296.47a2,2,0,0,0-2,2v29h39.8a2,2,0,0,0,2-2v-29Z" style="fill:#fff;stroke:#263238;stroke-linecap:round;stroke-linejoin:round"></path><rect x="404.16" y="316.13" width="59.94" height="11.37" rx="2.03" style="fill:#fff;stroke:#263238;stroke-linecap:round;stroke-linejoin:round"></rect><rect x="404.16" y="316.13" width="53.01" height="11.37" rx="2.03" style="fill:#fff;stroke:#263238;stroke-linecap:round;stroke-linejoin:round"></rect></g><g id="freepik--character-3--inject-26"><path d="M512.82,304.7s2.81,40,3.22,45.65-2.42,26.34-1.21,37.8,5,29.36,5,29.36,4.22,5.63,7.64,2.82,2.41-7.85,2.41-12.07,4-40,5-47.06a63.46,63.46,0,0,1,1.61-8.84l7.84-42s10,52.59,13,59.83,17.17,40.31,17.17,40.31l4.23,8.65,6.43-2s-2.29-43.93-4.5-50-3.22-9-3.22-9l.68-44,.61-8.45L514,301.88Z" style="fill:#fff;stroke:#263238;stroke-linecap:round;stroke-linejoin:round"></path><path d="M580.71,367.15c-2.21-6-3.22-9-3.22-9l.68-44,.61-8.45L514,301.88l-1.21,2.82s2.81,40,3.22,45.65-2.42,26.34-1.21,37.8c.41,3.88,1.12,8.5,1.88,12.91a30.31,30.31,0,0,0,13.66,1c1.09-11.68,3.77-35.28,4.57-40.86a63.46,63.46,0,0,1,1.61-8.84l7.84-42s10,52.59,13,59.83c2.16,5.18,9.07,22.83,14.58,33.09,4,.38,8.56.76,12.18-1.64C582.07,388.15,582,370.79,580.71,367.15Z" style="fill:#263238;stroke:#263238;stroke-linecap:round;stroke-linejoin:round"></path><path d="M584.81,410.07s-3.62-1-5.63.6-1.61,4.63-1.61,4.63l-1.81-3s-1.21-.8-.6,2.41,1.2,6.24,1.2,6.24-1,1.61.41,4.42,3,3,4.42,6.24,1.61,8.24,7,10.25,12.42,2.79,12-6.66-8.8-13.65-10.21-16.66A79.13,79.13,0,0,0,584.81,410.07Z" style="fill:#fff;stroke:#263238;stroke-linecap:round;stroke-linejoin:round"></path><path d="M588.23,441.84c5.43,2,12.42,2.79,12-6.66a16.14,16.14,0,0,0-.31-2.37c-.63,5.48-2.51,9.42-9.48,8-8.74-1.78-7.26-10.37-10.22-15s-3.88-4.91-3.88-4.91-1,1.61.41,4.42,3,3,4.42,6.24S582.8,439.83,588.23,441.84Z" style="fill:#fff;stroke:#263238;stroke-linecap:round;stroke-linejoin:round"></path><path d="M526.49,416.3s-4-5.43-6-5.43-3,1.41-3.22,3.82-2.81,7.85-2.81,7.85S502,432.79,501.16,434.4s3,2.62,5.83,3,25.13,0,25.13,0,1.21-1.41,1-4.63,0-12.67-.6-15.28S529.31,415.7,526.49,416.3Z" style="fill:#fff;stroke:#263238;stroke-linecap:round;stroke-linejoin:round"></path><path d="M511.17,435.33c-5.35,0-8-1-9.28-1.83a4.59,4.59,0,0,0-.73.9c-.81,1.61,3,2.62,5.83,3s25.13,0,25.13,0a6.57,6.57,0,0,0,1-4.26l-2,.54C525.4,435.33,520.06,435.33,511.17,435.33Z" style="fill:#fff;stroke:#263238;stroke-linecap:round;stroke-linejoin:round"></path><path d="M512,295.25l.41,11.66s10.25,7.44,31.77,10,35.19-1.4,35.19-1.4,3.82-13.48,4.42-35.6-6.43-69-6.43-69l-44.44.8Z" style="fill:#fff;stroke:#263238;stroke-linecap:round;stroke-linejoin:round"></path><path d="M524,292.69l-.93,9s-14.34-4.37-17.62-5.92-3.89-2.65-3.89-2.65l1.71-8.26A34.7,34.7,0,0,0,524,292.69Z" style="fill:#fff;stroke:#263238;stroke-linecap:round;stroke-linejoin:round"></path><path d="M536.55,204.14s-3.31-3.75-16.34.45a345.45,345.45,0,0,0-34.9,13.91c-8.84,4-10.17,8.62-6,13.7s7.07,5.74,13.25,5.3,12.15-4.86,18.12-6.19l7.95-1.76s-17.89,45.28-18.78,50.8,4,7.95,10.83,10.82A35,35,0,0,0,524,293.82l17.23-78.63S543.18,211,536.55,204.14Z" style="fill:#92E3A9;stroke:#263238;stroke-linecap:round;stroke-linejoin:round"></path><path d="M575.2,187.87s4.54-1.58,8,.17,4.8,9,4.8,9,3.49-2.76,7.13-.58A12.79,12.79,0,0,1,600,201a5.16,5.16,0,0,1,5.53-1.45A8,8,0,0,1,611,204.2c.59,1.31-.87.72-6,.72s-5.53-1.89-5.53-1.89-2.33,1-7.71.73-5.68-1.6-5.68-1.6,1.74,1.6-6,2-22.86-2-21.4-11.51,7.28-11.35,10.62-10.62S575.2,187.87,575.2,187.87Z" style="fill:#263238;stroke:#263238;stroke-linecap:round;stroke-linejoin:round"></path><path d="M552.43,297.06l.61,8.84s5.63,2.42,15.48.61,19.71-6.24,22.12-9.86a15.24,15.24,0,0,0,2.42-7.64s-19.11,7.24-28.36,8.25S552.43,297.06,552.43,297.06Z" style="fill:#fff;stroke:#263238;stroke-linecap:round;stroke-linejoin:round"></path><path d="M559.19,221.15S552,284.58,551.86,291s.47,8.58.47,8.58,14.65,3,29-3.12S596,287.23,595.5,284s-7.79-43.8-8-46.29-.15-6.55-.15-6.55l1.24-1.24s15,9.82,25.25,10,13.41-6.08,11.69-15.27-16.21-12.94-29.77-18.08-18.23-6.39-28.21-6.39S559.19,221.15,559.19,221.15Z" style="fill:#92E3A9;stroke:#263238;stroke-linecap:round;stroke-linejoin:round"></path><path d="M537.37,197.06s-5.53.73-6,2-1.31,6.41-1.74,8.88-.59,15.43,17.47,16,27.08-6.26,28.24-15.29,1-7.28-1.6-11.65-8.59-4.07-11.06-3.78-6.41,5.53-14.42,6.11S537.37,197.06,537.37,197.06Z" style="fill:#fff;stroke:#263238;stroke-linecap:round;stroke-linejoin:round"></path><path d="M543.05,205.07s3.64,4.75,6.14,4.43c0,0,3.76,2.41,10.75-5.3s1.6-8,1.6-8S552.08,206.09,543.05,205.07Z" style="fill:#263238;stroke:#263238;stroke-linecap:round;stroke-linejoin:round"></path><path d="M576.1,201.72s1.6,8.59-10.77,15.29-18.06,4.8-18.06,4.8" style="fill:none;stroke:#263238;stroke-linecap:round;stroke-linejoin:round"></path><path d="M556.45,208.27c-2.19,1.75-7.72,3.21-14.27,2.77s-9.9-7.13-9.9-7.13" style="fill:none;stroke:#263238;stroke-linecap:round;stroke-linejoin:round"></path><path d="M573.77,199.25s-2.91,6.84-16,13.39" style="fill:none;stroke:#263238;stroke-linecap:round;stroke-linejoin:round"></path><path d="M489,237.55s-3.38-2,.2-7.24,8.59-4.15,9.46-1.16.09,6.67-2.9,7.73S490.14,238.23,489,237.55Z" style="fill:#fff;stroke:#263238;stroke-linecap:round;stroke-linejoin:round"></path><path d="M512.5,223.46s5.44-.54,6-.65,2.17.55.76,2.07-1.74,1.74-6.42,2.39-2.29,2.29-6.1,4.58-4.46,2.28-4.46,2.28,1.52-8.82,4.57-11.32S512.5,223.46,512.5,223.46Z" style="fill:#fff;stroke:#263238;stroke-linecap:round;stroke-linejoin:round"></path><path d="M496.75,227.34s4.24-6.23,7.23-8.22,11-4,12.95-2.74.25,2.49.25,2.49,1.74,1.75.25,2.74-8.47,4-8.47,4,6.22-.25,7,1,.38,2-.93,2-4.24-.22-5.76-.22a15.47,15.47,0,0,0-3.81.76l6,1.2s1.42.76-.22,2-5.76-.87-6.2-.87-1,3.27-5,4.9-7.18.65-6.75-3.16A8.6,8.6,0,0,1,496.75,227.34Z" style="fill:#fff;stroke:#263238;stroke-linecap:round;stroke-linejoin:round"></path><path d="M517.18,218.87s-3.26.57-6.2,1.33a20.92,20.92,0,0,0-5.77,2.94" style="fill:#fff;stroke:#263238;stroke-linecap:round;stroke-linejoin:round"></path><path d="M509,225.6a8.93,8.93,0,0,0-3.1.26c-1.41.43-2.39.76-2.39.76" style="fill:#fff;stroke:#263238;stroke-linecap:round;stroke-linejoin:round"></path><path d="M489.47,219.21s5.69-1,10.13,4.93" style="fill:none;stroke:#263238;stroke-linecap:round;stroke-linejoin:round"></path><path d="M600.68,226.07s4.46-6.19,16-7.34" style="fill:none;stroke:#263238;stroke-linecap:round;stroke-linejoin:round"></path><path d="M609.61,231.84a6.41,6.41,0,1,1-6.41-6.63A6.52,6.52,0,0,1,609.61,231.84Z" style="fill:#fff;stroke:#263238;stroke-linecap:round;stroke-linejoin:round"></path><path d="M590.31,221.52s-3-3.7-5.55-3-7,5.37-6.29,6.29,1.11,1.3,3.33,0,3.52-2.4,4.26-2a4.89,4.89,0,0,1,1.66,3.51c0,1.3-.37,3-2,3.52s-5,.74-8.7.55-2.59,3.52,2.22,3.89a48.41,48.41,0,0,0,10.18-.55,16.1,16.1,0,0,0,4.62,1.11h1.85a9.79,9.79,0,0,0,5.93,2.4c3.33,0,4.81-3.88,3.33-7.59s-9.81-6.66-10.92-7S590.31,221.52,590.31,221.52Z" style="fill:#fff;stroke:#263238;stroke-linecap:round;stroke-linejoin:round"></path><path d="M595.12,224.3l-4.81-2.78s-8.14,4.63-7,6.66,2.22.74,4.63-.55,3.33-1.67,3.33-1.67S595.31,227.26,595.12,224.3Z" style="fill:#fff;stroke:#263238;stroke-linecap:round;stroke-linejoin:round"></path><path d="M599.81,225.56,595,222.79s-8.15,4.62-7,6.66,2.23.74,4.63-.56,3.33-1.66,3.33-1.66S600,228.52,599.81,225.56Z" style="fill:#fff;stroke:#263238;stroke-linecap:round;stroke-linejoin:round"></path><path d="M602.21,227.79,598,225.38s-8.14,4.63-7,6.66,2.22.74,4.63-.55,3.33-1.67,3.33-1.67a6.47,6.47,0,0,0,2,.28" style="fill:#fff;stroke:#263238;stroke-linecap:round;stroke-linejoin:round"></path><ellipse cx="565.54" cy="146.62" rx="10.87" ry="9.8" style="fill:#92E3A9;stroke:#263238;stroke-linecap:round;stroke-linejoin:round"></ellipse><path d="M531.48,177.74s0,9.26.86,14S541,206,545.91,206.82s10.77-1.94,15.29-6.25,7.76-15.07,8-15.72-1.94-6.46-9-9.69c-14.3-6.5-20.25-4.53-24.35-2.59S531.48,177.74,531.48,177.74Z" style="fill:#fff;stroke:#263238;stroke-linecap:round;stroke-linejoin:round"></path><path d="M545.69,183.77a1.61,1.61,0,0,1-.86,2.16c-1.51.64-2.58,2.8-.65,3.87a2.32,2.32,0,0,0,3-.21" style="fill:none;stroke:#263238;stroke-linecap:round;stroke-linejoin:round"></path><path d="M543.75,193.68a8.89,8.89,0,0,0,9.7-1.51" style="fill:none;stroke:#263238;stroke-linecap:round;stroke-linejoin:round"></path><path d="M556.25,182.16c0,1.13-.53,2-1.19,2s-1.18-.91-1.18-2,.53-2,1.18-2S556.25,181,556.25,182.16Z" style="fill:#263238"></path><path d="M541.82,181.4c0,1.13-.53,2-1.19,2s-1.18-.92-1.18-2,.53-2,1.18-2S541.82,180.27,541.82,181.4Z" style="fill:#263238"></path><path d="M530.46,162.69a31.48,31.48,0,0,1,11.46-12.05c7.67-4.37,19.49-2.83,23.5,1.06s7.33,9.45,7.8,14.53,2.36-1.18-17.25-2.36-25.63.24-25.63.24Z" style="fill:#92E3A9;stroke:#263238;stroke-linecap:round;stroke-linejoin:round"></path><path d="M530.78,180s.91-4.37,15.56-4.16,22.24,10.73,22.46,11.81,4.9,3.7,6.4.26,3.67-11.42,3-15.94-5.17-11.21-26.71-13.58-26.07,7.11-26.07,10.13.44,8,1.3,10.34S530.78,180,530.78,180Z" style="fill:#92E3A9;stroke:#263238;stroke-linecap:round;stroke-linejoin:round"></path><path d="M530.46,162.69s1.09,9.48,1.53,10.93" style="fill:none;stroke:#263238;stroke-linecap:round;stroke-linejoin:round"></path><path d="M537.52,160.66c0,1,1.31,10.2,1.31,10.2" style="fill:none;stroke:#263238;stroke-linecap:round;stroke-linejoin:round"></path><line x1="545.53" y1="159.65" x2="545.53" y2="164.3" style="fill:none;stroke:#263238;stroke-linecap:round;stroke-linejoin:round"></line><line x1="563.43" y1="162.27" x2="560.67" y2="171.44" style="fill:none;stroke:#263238;stroke-linecap:round;stroke-linejoin:round"></line><line x1="576.1" y1="172.89" x2="573.48" y2="179.45" style="fill:none;stroke:#263238;stroke-linecap:round;stroke-linejoin:round"></line><path d="M545.86,181.05a7,7,0,1,0-7,7A7,7,0,0,0,545.86,181.05Z" style="fill:none;stroke:#263238;stroke-linecap:round;stroke-linejoin:round"></path><path d="M561.33,181.05a7,7,0,1,0-7,7A7,7,0,0,0,561.33,181.05Z" style="fill:none;stroke:#263238;stroke-linecap:round;stroke-linejoin:round"></path><line x1="545.93" y1="179.82" x2="547.35" y2="179.82" style="fill:none;stroke:#263238;stroke-linecap:round;stroke-linejoin:round"></line><path d="M590.47,254.51l1,4.91c36,4,62.83,17,62.83,31.75,0,17.85-39.59,32.92-86.46,32.92S481.35,309,481.35,291.17c0-8.26,8.48-15.92,22.24-21.77l2-6.38c-18.16,6.91-29.38,16.88-29.38,28.15,0,21.33,40.22,38,91.57,38s91.58-16.71,91.58-38C659.38,273,630.71,258.54,590.47,254.51Z" style="fill:#fff;stroke:#263238;stroke-linecap:round;stroke-linejoin:round"></path></g><g id="freepik--character-2--inject-26"><polygon points="426.17 242.91 429.62 238.3 436.76 241.52 434.69 247.51 426.17 242.91" style="fill:#92E3A9;stroke:#263238;stroke-linecap:round;stroke-linejoin:round"></polygon><path d="M338.63,297.5s-3.45,1.84-3.69,13.36,4.38,14.74,6.46,15.2c1.52.34,30.39.18,45.42.07,7.95-.05,14.49-6.75,13.83-14.67a13.23,13.23,0,0,0-.51-2.67c-2.54-8.3-3.83-10.3-3.83-10.3Z" style="fill:#92E3A9;stroke:#263238;stroke-linecap:round;stroke-linejoin:round"></path><path d="M359.13,224.94a101.32,101.32,0,0,0-16.81,5.76c-8.76,3.91-17.51,33.17-15.44,41.46s5.07,9,7.6,8.06,5.3-4.37,5.3-4.37-6,22.34-4.6,26,6.91,4.37,15.43,4.14,40.08,0,40.08,0,8.75,0,9.91-6.22-3.69-24.41-3.69-24.41,8.75,7.83,16.13,6.45,16.95-18.43,19.35-23c3.22-6.22,2.76-8.75,2.3-11.29s-6.45-6.45-10.14-4.83-14.28,15.43-14.28,15.43-11.75-22.81-16.81-26-6.69-4.15-17.74-6S359.13,224.94,359.13,224.94Z" style="fill:#636363;stroke:#263238;stroke-linecap:round;stroke-linejoin:round"></path><line x1="365.81" y1="254.88" x2="366.04" y2="297.5" style="fill:none;stroke:#263238;stroke-linecap:round;stroke-linejoin:round"></line><line x1="394.38" y1="271.93" x2="377.56" y2="271.93" style="fill:none;stroke:#263238;stroke-linecap:round;stroke-linejoin:round"></line><line x1="343.93" y1="271.47" x2="358.44" y2="271.47" style="fill:none;stroke:#263238;stroke-linecap:round;stroke-linejoin:round"></line><line x1="347.61" y1="285.98" x2="357.75" y2="285.98" style="fill:none;stroke:#263238;stroke-linecap:round;stroke-linejoin:round"></line><line x1="373.88" y1="286.21" x2="388.85" y2="286.21" style="fill:none;stroke:#263238;stroke-linecap:round;stroke-linejoin:round"></line><path d="M416.26,255.11s5.07,5.76,9.68,6.68" style="fill:none;stroke:#263238;stroke-linecap:round;stroke-linejoin:round"></path><path d="M405.2,252.12s-7.37,2.53-9.21,6" style="fill:none;stroke:#263238;stroke-linecap:round;stroke-linejoin:round"></path><line x1="370.42" y1="257.42" x2="390.46" y2="257.42" style="fill:none;stroke:#263238;stroke-linecap:round;stroke-linejoin:round"></line><line x1="356.14" y1="256.5" x2="346.92" y2="256.5" style="fill:none;stroke:#263238;stroke-linecap:round;stroke-linejoin:round"></line><line x1="396.91" y1="275.39" x2="395.3" y2="250.97" style="fill:none;stroke:#263238;stroke-linecap:round;stroke-linejoin:round"></line><path d="M339.78,275.85s3.46-21,3.69-21.89" style="fill:none;stroke:#263238;stroke-linecap:round;stroke-linejoin:round"></path><path d="M410.27,258.11s-1.84,4.61-1.84,8.06" style="fill:none;stroke:#263238;stroke-linecap:round;stroke-linejoin:round"></path><path d="M360.51,219.18a23.57,23.57,0,0,0-8.06,4.84c-3.22,3.22-2.3,6.45-.69,9s14.05,18,14.05,18,15.67-13.82,18.2-18,4.15-6.91.23-11.75S360.51,219.18,360.51,219.18Z" style="fill:#92E3A9;stroke:#263238;stroke-linecap:round;stroke-linejoin:round"></path><path d="M359.82,221.94l.92,8.53s3.92,9.21,5.3,8.29,7.14-8.06,8.07-10.14,2.3-11.05,2.3-11.05l-15.9,1.61Z" style="fill:#fff;stroke:#263238;stroke-linecap:round;stroke-linejoin:round"></path><path d="M389.62,172.89s3.48-9.13,20.43-6.31,12.17,30.22,8,34.78,3.7,6.52,5.65,3.7c0,0,.22,5.65-8,8.47s-16.73,1.74-20.86-10S389.62,172.89,389.62,172.89Z" style="fill:#263238;stroke:#263238;stroke-linecap:round;stroke-linejoin:round"></path><path d="M350.93,183.54s-.87,13-1.74,17.6-2,10.87,5.43,17.61,23,7.82,30.22-6.3c0,0,4.78,1.73,8.69-3s3.7-10,1.09-15.65-13.48-11.08-30.43-15.21S350.93,183.54,350.93,183.54Z" style="fill:#fff;stroke:#263238;stroke-linecap:round;stroke-linejoin:round"></path><path d="M376.14,169.19s-11.73-5.22-20.65-1.3-9.56,16.73-9.56,16.73l13,2.83,3.26-5.43-.65,5.65,13.26,3.91,2-4.78.21,5.43,5.65,2.83a6.21,6.21,0,0,0-.65,4.34,5.41,5.41,0,0,0,3,3.92s1.53-4.57,6.09-3.26,1.52,10-.22,11.52-6.08.87-6.08.87,4.34,2,6.74.87,9.56-7.61,9.78-20.22-6.52-18.69-13.7-21.95S376.14,169.19,376.14,169.19Z" style="fill:#263238;stroke:#263238;stroke-linecap:round;stroke-linejoin:round"></path><path d="M358.75,203.75a3.16,3.16,0,0,0,3.26,2.39c2.61-.22,3.27-1.3,3.27-1.3" style="fill:none;stroke:#263238;stroke-linecap:round;stroke-linejoin:round"></path><path d="M359,210.27s4.13,2.61,10.87-.87" style="fill:none;stroke:#263238;stroke-linecap:round;stroke-linejoin:round"></path><path d="M369.19,207.45s.87,3.26,2.82,3.91" style="fill:none;stroke:#263238;stroke-linecap:round;stroke-linejoin:round"></path><path d="M354.41,197.45a4.1,4.1,0,0,1,4.56.65" style="fill:none;stroke:#263238;stroke-linecap:round;stroke-linejoin:round"></path><path d="M368.54,200.06s3.91-1.09,5.43,1.3" style="fill:none;stroke:#263238;stroke-linecap:round;stroke-linejoin:round"></path><path d="M360.49,193.32s-2.61-3.48-7.17,0" style="fill:none;stroke:#263238;stroke-linecap:round;stroke-linejoin:round"></path><path d="M368.54,194.84s6.3-2.39,8.26,3.91" style="fill:none;stroke:#263238;stroke-linecap:round;stroke-linejoin:round"></path><path d="M429.62,238.3s1.15-3.92,2.07-6.91,3.69-3.92,6-6.45,2.77-8.53,4.84-6.45-.46,6.45-.46,6.45l9.21-.69s8.07-6.91,8.76-3.92-6.22,11.52-8.53,13.36-13.13,5.3-13.13,5.3l-1.61,2.53Z" style="fill:#fff;stroke:#263238;stroke-linecap:round;stroke-linejoin:round"></path><path d="M435.84,235.07s3-4.37,5.76-4.6,10.14-.46,10.14-.46.69-10.83,2.76-10.37.69,9.21-.46,11.75-15.67,7.6-15.67,7.6" style="fill:#fff;stroke:#263238;stroke-linecap:round;stroke-linejoin:round"></path><path d="M338.63,266.63s-7.83-7.83-10.13-10.82-12-3.92-13.6.23.93,13.82,4.84,19.58,9.68,8.52,14.05,6.91,6.45-7.61,6.91-9.91" style="fill:#636363;stroke:#263238;stroke-linecap:round;stroke-linejoin:round"></path><path d="M317.9,253.5s-2.54-.46-3.46,4.15a7.28,7.28,0,0,0,6,9c4.15.69,9.22-3.45,9.68-6s-.23-4.14-3.23-6.68A7.66,7.66,0,0,0,317.9,253.5Z" style="fill:#92E3A9;stroke:#263238;stroke-linecap:round;stroke-linejoin:round"></path><path d="M324.12,232.31s-1.38-9.22,3.22-10.37,7.37.69,7.37.69-3,3.69-1.84,5.53,3.46-.46,3.46-.46.69,2.54,2.07,3.23,3.23-2.31,3.23-2.31,1.38,1.39,2.07-.46l.69-1.84s3.22,2.76,1.61,8.75a15.7,15.7,0,0,1-6,8.76s1.62,8.06,0,10.13-18.66-2.07-20-5.3,6-13.13,6-13.13Z" style="fill:#fff;stroke:#263238;stroke-linecap:round;stroke-linejoin:round"></path><path d="M322.51,232.08s-1.39-9.22,3.22-10.37,7.37.69,7.37.69-3,3.69-1.84,5.53,3.45-.46,3.45-.46.7,2.54,2.08,3.23,3.22-2.31,3.22-2.31,1.39,1.39,2.08-.46l.69-1.84s3.22,2.76,1.61,8.75a15.7,15.7,0,0,1-6,8.76s1.61,8.06,0,10.13-18.66-2.07-20-5.3,6-13.13,6-13.13Z" style="fill:#fff;stroke:#263238;stroke-linecap:round;stroke-linejoin:round"></path><path d="M317.9,258.34s-3.23-11.29-4.38-15.2a8.17,8.17,0,0,1,4.38-9.91c3.91-1.84,7.14-3,6.68-.92s-4.38,3-5.53,3.92A15.13,15.13,0,0,0,317,238.3s4.6-2.54,7.37-3,3.91,2.08,1.61,3.46-4.38,1.84-5.76,3.22a8,8,0,0,0-1.84,2.77s4.15-2.54,7.14-3,3.92,0,2.53,1.62-4.37,2.76-5.52,3.45a5.77,5.77,0,0,0-1.85,2.54s8.76-4.61,8.07-2.31-4.84,4.38-4.84,4.38a5.27,5.27,0,0,1,.92,6.22C323,261.33,319.28,260.64,317.9,258.34Z" style="fill:#fff;stroke:#263238;stroke-linecap:round;stroke-linejoin:round"></path><path d="M358.71,325s2.2-17.54-5.32-23.18c-4.94-3.71-18.8-5.64-21.61,10s6.89,65.78,6.57,70.48.32,9.71-.94,13.16a20.53,20.53,0,0,1-7.83,10c-4.38,3.13-3.76,5.64,3.14,7.2s27.25,0,27.25,0,2.82-2.5,1.56-8.77-1.25-16-1.56-19.73S358.71,325,358.71,325Z" style="fill:#fff;stroke:#263238;stroke-linecap:round;stroke-linejoin:round"></path><path d="M332.72,412.73c6.89,1.57,27.25,0,27.25,0s2.82-2.5,1.56-8.77a90,90,0,0,1-1.2-12.21h-4.75s-1.88-11.91-8.77-10.34c-5.85,1.33-8.08,7.62-8.62,9.49a16.15,16.15,0,0,1-.78,4.61,20.53,20.53,0,0,1-7.83,10C325.2,408.66,325.82,411.17,332.72,412.73Z" style="fill:#fff;stroke:#263238;stroke-linecap:round;stroke-linejoin:round"></path><path d="M342.74,409.6c-8.09,0-12.77-1.13-15.29-2.1-1.66,2.22-.11,4,5.27,5.23,6.89,1.57,27.25,0,27.25,0a7.14,7.14,0,0,0,1.81-4.43A127.72,127.72,0,0,1,342.74,409.6Z" style="fill:#fff;stroke:#263238;stroke-linecap:round;stroke-linejoin:round"></path><path d="M353.39,301.85c-4.94-3.71-18.8-5.64-21.61,10C329.59,324,335,357,337.31,373.27h22.33c-.4-17.21-.93-48.24-.93-48.24S360.91,307.49,353.39,301.85Z" style="fill:#92E3A9;stroke:#263238;stroke-linecap:round;stroke-linejoin:round"></path><path d="M388.81,323.37s-.19-17.67-8.4-22.25c-5.4-3-19.38-3.05-20.06,12.85s15.7,64.25,16,68.95,1.62,9.58.85,13.16a20.65,20.65,0,0,1-6.41,11c-3.92,3.69-3,6.09,4.08,6.72s27-3.68,27-3.68,2.45-2.87.37-8.9-3.4-15.66-4.22-19.35S388.81,323.37,388.81,323.37Z" style="fill:#fff;stroke:#263238;stroke-linecap:round;stroke-linejoin:round"></path><path d="M374.89,413.78c7,.63,27-3.67,27-3.67s2.45-2.87.37-8.9a89.84,89.84,0,0,1-2.85-11.95l-4.7.64s-3.47-11.54-10.08-9c-5.63,2.1-7,8.64-7.27,10.56a16.26,16.26,0,0,1-.14,4.67,20.65,20.65,0,0,1-6.41,11C366.89,410.76,367.85,413.16,374.89,413.78Z" style="fill:#fff;stroke:#263238;stroke-linecap:round;stroke-linejoin:round"></path><path d="M384.4,409.33c-8,1.09-12.81.6-15.44,0-1.34,2.42.44,4,5.93,4.47,7,.63,27-3.67,27-3.67a7.2,7.2,0,0,0,1.2-4.64A127.39,127.39,0,0,1,384.4,409.33Z" style="fill:#fff;stroke:#263238;stroke-linecap:round;stroke-linejoin:round"></path><path d="M380.41,301.12c-5.4-3-19.38-3.05-20.06,12.85-.53,12.34,9.22,44.24,13.76,60.09l22.13-3c-2.72-17-7.43-47.68-7.43-47.68S388.62,305.7,380.41,301.12Z" style="fill:#92E3A9;stroke:#263238;stroke-linecap:round;stroke-linejoin:round"></path></g><g id="freepik--character-1--inject-26"><path d="M261.14,185.39a6.73,6.73,0,0,1,7.76-1.66" style="fill:none;stroke:#263238;stroke-linecap:round;stroke-linejoin:round"></path><path d="M220.79,297.5s-3.45,1.84-3.68,13.36,4.38,14.74,6.45,15.2,54.36,0,54.36,0,6.91-9,4.38-17.27-3.82-10.3-3.82-10.3Z" style="fill:#263238;stroke:#263238;stroke-linecap:round;stroke-linejoin:round"></path><path d="M225.47,226.83s-5.94,3.8-8.42,9.08-18.92,33-18.75,36.79S222,269.1,222,269.1s-3,24.27-2.65,26.42,2,3.47,5.29,3,53.83,0,53.83,0a8.47,8.47,0,0,0,2.64-6.6c-.17-4.3-6.44-33.36-6.44-33.36l11.06,15.69s4.46,2.14,7.43.16,5.28-10.56,3.63-16.51-6.6-7.43-15.35-21.13-20-14.86-20-14.86-7.6-3.14-21.8-1.49S225.47,226.83,225.47,226.83Z" style="fill:#92E3A9;stroke:#263238;stroke-linecap:round;stroke-linejoin:round"></path><line x1="222.34" y1="263.16" x2="225.14" y2="243.84" style="fill:#fff;stroke:#263238;stroke-linecap:round;stroke-linejoin:round"></line><polyline points="274.68 258.53 273.36 253.91 272.86 240.86" style="fill:none;stroke:#263238;stroke-linecap:round;stroke-linejoin:round"></polyline><path d="M238.52,213.29s-5.29,2.48-6.77,4.29-6.28,2.48-8.09,5.78a6.7,6.7,0,0,0-.5,5.95s9.74,3.63,21.8,8.25,15.85,1.82,18.65-2,5.95-8.09,6.28-11.23-1.65-5.61-7.1-8.58S245,210.81,238.52,213.29Z" style="fill:#92E3A9;stroke:#263238;stroke-linecap:round;stroke-linejoin:round"></path><path d="M270.71,175.64s3.64,3.64,2.15,7.76-.33,8.59,1.16,9.09,5.45-.17,4.29,3.79a8.49,8.49,0,0,1-4,5.29s-1.65,8.58-3.47,11.88-6.44,2.32-8.09,2.32a18.29,18.29,0,0,0-2.64.16l-4.3,22.79s-.66,3-9.74-8.42-7.59-13.38-7.59-13.38l-5-23.94s-7.26-13.54,8.59-21.46S270.71,175.64,270.71,175.64Z" style="fill:#fff;stroke:#263238;stroke-linecap:round;stroke-linejoin:round"></path><path d="M257,178s3.85,4.84-.61,7a73.82,73.82,0,0,0-7.71,4.29l.85,5.31-4.28-2.23s1.05,4.13,1.54,4.63-1.54,3.26-1.54,3.26l-8.89-1.6,1.18,11.88-7.78-14.19s-5.62-2.8-7.6-12.05,9.08-21.47,21.14-24.11,17.83-1.15,25.59,2.48a22.84,22.84,0,0,1,10.73,11.06L276,171.52s2.48,5.94,2.31,6.93-9.74-1.32-9.74-1.32l2.31,4.13S263.12,178,257,178Z" style="fill:#263238;stroke:#263238;stroke-linecap:round;stroke-linejoin:round"></path><path d="M245.6,201.39s-4.28-6.91-7.92-8.06-5,5.94-1.48,10.07,8.72,2.44,8.72,2.44" style="fill:#fff;stroke:#263238;stroke-linecap:round;stroke-linejoin:round"></path><path d="M265.93,190.42c0,1.23-.56,2.23-1.24,2.23s-1.24-1-1.24-2.23.55-2.23,1.24-2.23S265.93,189.19,265.93,190.42Z" style="fill:#263238"></path><path d="M262.79,201.4s1.65,3.8,8.09,2.64" style="fill:none;stroke:#263238;stroke-linecap:round;stroke-linejoin:round"></path><path d="M260.15,215.93s-9.91-2.64-12.88-6.11c0,0,.33,2.31,4.13,8.59a45.37,45.37,0,0,0,6.6,8.91Z" style="fill:#263238;stroke:#263238;stroke-linecap:round;stroke-linejoin:round"></path><path d="M225,260.48a7.24,7.24,0,0,0-6.46-.68c-5.26,2-15,5.61-17.13,6.33-3,1-5,4.95-4.79,9.74s2.47,8.42,8.58,7.76,16.38-5.74,19.36-7.83a10,10,0,0,0,3.76-5.05l-.17-8.26Z" style="fill:#92E3A9;stroke:#263238;stroke-linecap:round;stroke-linejoin:round"></path><path d="M228.11,262.49s7.6.17,10.74.17,9.24,6.77,9.24,7.26-1.48.83-1.48.83H228.28Z" style="fill:#fff;stroke:#263238;stroke-linecap:round;stroke-linejoin:round"></path><path d="M233.12,262.59c-2.64,0-5-.1-5-.1l.17,8.26h5Z" style="fill:#92E3A9;stroke:#263238;stroke-linecap:round;stroke-linejoin:round"></path><rect x="226.36" y="270.48" width="47.6" height="30.98" rx="2.03" style="fill:#fff;stroke:#263238;stroke-linecap:round;stroke-linejoin:round"></rect><path d="M294.33,221.77s.43-2.18-3.27-4.59-7.95-.74-9.43.19l-1.48.92s3.15,2,3.15,4.44-1.3,4.62-3.89,5l-2.59.37a7.54,7.54,0,0,0,5.37,6.11,11.05,11.05,0,0,0,12.57-4.07C297.35,226.43,294.33,221.77,294.33,221.77Z" style="fill:#fff;stroke:#263238;stroke-linecap:round;stroke-linejoin:round"></path><path d="M284.21,249.2s-3.21-9.18-2.34-11,5.76-2.63,5.76-2.63-4.29-4.64-2.26-5.48,5.68,4.91,5.68,4.91-3.26-6.49-2.77-8.58,2.52-.92,3,.17,2.85,7,2.85,7-1-5-1.28-6.65-1.68-5.07-.27-5.64,1.88,1.19,1.88,1.19a1.53,1.53,0,0,1,2.66-.11c1.46,1.77,2.79,9.75,2.3,11.84s-11.91,8.85-11.91,8.85l2.95,4.69Z" style="fill:#fff;stroke:#263238;stroke-linecap:round;stroke-linejoin:round"></path><path d="M294.5,222.54s3.2,7.17,3.25,10.51" style="fill:#fff;stroke:#263238;stroke-linecap:round;stroke-linejoin:round"></path><polygon points="291.85 243.18 280.62 246.15 281.45 250.28 292.35 247.63 291.85 243.18" style="fill:#92E3A9;stroke:#263238;stroke-linecap:round;stroke-linejoin:round"></polygon><path d="M281.45,250.28s-1.65.49-1.65,3.3,2.31,16.34,3.13,19.32,2,5.94,8.59,5.61,9.25-2.81,9.25-6.44-5-21.3-5.45-23.45-3-1-3-1Z" style="fill:#92E3A9;stroke:#263238;stroke-linecap:round;stroke-linejoin:round"></path><path d="M248.9,373.75s2.07-46.53.23-59.2a14.69,14.69,0,0,0-4.07-8.4c-8.39-8.53-22.74-3.43-24.44,8.41a32,32,0,0,0-.29,3.44c-.46,16.82,5.53,57.82,5.53,57.82s-3.22,2.53-1.84,5.07a9.32,9.32,0,0,1,1.38,3.91s-2.07,2.54-1.61,3.92.92,3.69.92,3.69l.69,1.61s.69,4.15-2.53,9-5.53,6.22-5.07,9.68,15.66,4.14,21.65,3,9.45-1.61,10.83-3.91,0-20.74,0-20.74a20.88,20.88,0,0,0,1.15-4.83c0-1.62-.92-2.54-.69-3.23s1.84-.23,2.3-3.22S248.9,373.75,248.9,373.75Z" style="fill:#fff;stroke:#263238;stroke-linecap:round;stroke-linejoin:round"></path><path d="M251.43,386.19c0-1.62-.92-2.54-.69-3.23s1.84-.23,2.3-3.22-4.14-6-4.14-6,2.07-46.53.23-59.2a14.69,14.69,0,0,0-4.07-8.4c-8.39-8.53-22.74-3.43-24.44,8.41a32,32,0,0,0-.29,3.44c-.46,16.82,5.53,57.82,5.53,57.82s-3.22,2.53-1.84,5.07a9.32,9.32,0,0,1,1.38,3.91s-2.07,2.54-1.61,3.92.92,3.69.92,3.69l.69,1.61a6.82,6.82,0,0,1,5.3-8.06c6.68-1.85,11.29,2.3,12,5.52s3.22.93,7.6-.46A20.88,20.88,0,0,0,251.43,386.19Z" style="fill:#263238;stroke:#263238;stroke-linecap:round;stroke-linejoin:round"></path><path d="M250.28,411.76a7.1,7.1,0,0,0,.49-2.53,54.77,54.77,0,0,1-14.08,4.14c-6.7.88-15.28-.67-18.94-1.44a6.59,6.59,0,0,0,.05.75c.46,3.45,15.66,4.14,21.65,3S248.9,414.06,250.28,411.76Z" style="fill:#fff;stroke:#263238;stroke-linecap:round;stroke-linejoin:round"></path><path d="M249.36,381.35s-24.19-3.23-20.27-2.07,12.9,3,12.9,3" style="fill:none;stroke:#263238;stroke-linecap:round;stroke-linejoin:round"></path><path d="M257.16,373.75s-2.07-46.53-.23-59.2a14.69,14.69,0,0,1,4.07-8.4c8.39-8.53,22.74-3.43,24.44,8.41a29.67,29.67,0,0,1,.29,3.44c.46,16.82-5.53,57.82-5.53,57.82s3.23,2.53,1.84,5.07a9.32,9.32,0,0,0-1.38,3.91s2.07,2.54,1.61,3.92-.92,3.69-.92,3.69l-.69,1.61s-.69,4.15,2.53,9,5.53,6.22,5.07,9.68-15.66,4.14-21.65,3-9.45-1.61-10.83-3.91,0-20.74,0-20.74a20.88,20.88,0,0,1-1.15-4.83c0-1.62.92-2.54.69-3.23s-1.84-.23-2.3-3.22S257.16,373.75,257.16,373.75Z" style="fill:#fff;stroke:#263238;stroke-linecap:round;stroke-linejoin:round"></path><path d="M254.63,386.19c0-1.62.92-2.54.69-3.23s-1.84-.23-2.3-3.22,4.14-6,4.14-6-2.07-46.53-.23-59.2a14.69,14.69,0,0,1,4.07-8.4c8.39-8.53,22.74-3.43,24.44,8.41a29.67,29.67,0,0,1,.29,3.44c.46,16.82-5.53,57.82-5.53,57.82s3.23,2.53,1.84,5.07a9.32,9.32,0,0,0-1.38,3.91s2.07,2.54,1.61,3.92-.92,3.69-.92,3.69l-.69,1.61a6.82,6.82,0,0,0-5.3-8.06c-6.68-1.85-11.28,2.3-12,5.52s-3.22.93-7.6-.46A20.88,20.88,0,0,1,254.63,386.19Z" style="fill:#263238;stroke:#263238;stroke-linecap:round;stroke-linejoin:round"></path><path d="M255.78,411.76a7.1,7.1,0,0,1-.49-2.53,54.9,54.9,0,0,0,14.08,4.14c6.7.88,15.28-.67,18.95-1.44a6.67,6.67,0,0,1-.06.75c-.46,3.45-15.66,4.14-21.65,3S257.16,414.06,255.78,411.76Z" style="fill:#fff;stroke:#263238;stroke-linecap:round;stroke-linejoin:round"></path><path d="M256.7,381.35s24.19-3.23,20.28-2.07-12.9,3-12.9,3" style="fill:none;stroke:#263238;stroke-linecap:round;stroke-linejoin:round"></path></g><g id="freepik--backpack-2--inject-26"><path d="M495.14,364.81s2.51.62,2.19,11.27S484.49,404,481.67,406.47s-20.05,3.44-20.05,3.44l2.2-6.89s11.59.94,15-1.56,11.59-22.56,11.91-28.19-2.2-11.59-2.2-11.59Z" style="fill:#636363;stroke:#263238;stroke-linecap:round;stroke-linejoin:round"></path><path d="M461,356.35s23.18-2.19,26.94.31,7.2,8.15,7.2,8.15-15.66-.31-21.61.31-9.09.94-9.09.94Z" style="fill:#263238;stroke:#263238;stroke-linecap:round;stroke-linejoin:round"></path><path d="M494.2,416.49s-2.19,1.88-8.46.63-17.22-5.95-21.3-5-7.83,1.56-7.83,1.56l12.22-7.83s7.52.32,13.47,3.76,12.84,1.88,12.84,1.88Z" style="fill:#636363;stroke:#263238;stroke-linecap:round;stroke-linejoin:round"></path><path d="M472.59,367.94s20,29.13,26,35.08,4.38,6.58,1.25,9.71-7.52,7.21-9.4,3.45,1.57-7.83-3.76-14.72-17.54-16.92-17.54-16.92Z" style="fill:#263238;stroke:#263238;stroke-linecap:round;stroke-linejoin:round"></path><path d="M465.07,357.29s-15.35-7.52-21.3-10.65a16.79,16.79,0,0,0-19.42,2.51c-6,5.32-9.71,25.37-9.71,25.37l-15,15c-4.07,4.08-6,11-2.5,14.73s23.18,17.85,35.39,19.42,31-4.39,35.4-8.15,4.7-5.32,4.38-20.67,3.76-22.55,1.26-29.76S465.07,357.29,465.07,357.29Z" style="fill:#92E3A9;stroke:#263238;stroke-linecap:round;stroke-linejoin:round"></path><path d="M462.25,362.3c-5.64,3.45-7.2,11.59-8.14,28.51,0,0-1.88,17.23-6.27,20.67s-18.48,6.58-16.91,9.4c.68,1.23,2.55,2.27,5.4,3.07,12,.14,27.61-5,31.56-8.4,4.38-3.76,4.7-5.32,4.38-20.67s3.76-22.55,1.26-29.76a13.18,13.18,0,0,0-2.47-4.36C467.56,360.69,464.25,361.08,462.25,362.3Z" style="fill:#fff;stroke:#263238;stroke-linecap:round;stroke-linejoin:round"></path><path d="M465.07,357.29s-15.35-7.52-21.3-10.65a16.79,16.79,0,0,0-19.42,2.51c-6,5.32-9.71,25.37-9.71,25.37-.31,1.88-.63,6.58,15.66,16.29s17.54,10,21.3,6.58,4.07-10,4.7-24.12,14.41-11.91,14.41-11.91l.6-.29A10.24,10.24,0,0,0,465.07,357.29Z" style="fill:#fff;stroke:#263238;stroke-linecap:round;stroke-linejoin:round"></path><path d="M428.42,350.71c-4.7,5-10,24.12-10,24.12s2.82,7.21,16,12.53,14.72,6.58,16,.63-1.26-20.68,5-26.31a21.76,21.76,0,0,1,9-4.75c-3.13-1.54-15.39-7.57-20.56-10.29C443.77,346.64,433.12,345.7,428.42,350.71Z" style="fill:#92E3A9;stroke:#263238;stroke-linecap:round;stroke-linejoin:round"></path><path d="M447.22,382.19a3.62,3.62,0,1,1-3.61-3.91A3.77,3.77,0,0,1,447.22,382.19Z" style="fill:#fff;stroke:#263238;stroke-linecap:round;stroke-linejoin:round"></path><path d="M430.14,372.48a3.61,3.61,0,1,1-3.6-3.91A3.77,3.77,0,0,1,430.14,372.48Z" style="fill:#fff;stroke:#263238;stroke-linecap:round;stroke-linejoin:round"></path><path d="M409.31,381.72s0,.32,14.73,10.65,21,11.28,21,11.28a31.23,31.23,0,0,0-9.71,4.39c-4.38,3.13-4.7,5.32-4.7,5.32L400.86,393S400.23,388.61,409.31,381.72Z" style="fill:#fff;stroke:#263238;stroke-linecap:round;stroke-linejoin:round"></path></g><g id="freepik--backpack-1--inject-26"><path d="M122.12,290.57s-4.07,15-6.89,21.3-10.65,12.22-9.08,14.1,11,1.56,12.22,1.25,10-13.78,10-13.78Z" style="fill:#263238;stroke:#263238;stroke-linecap:round;stroke-linejoin:round"></path><path d="M184.46,282.74s-9.09-11.9-16-19.11-34.45,2.51-43.54,6.58-4.7,24.75-3.76,32.26-.94,22.24,1.88,23.81,64.22,1.57,68.92.31,9.08-3.13,5.63-12.84-10.33-21.61-11-23.49S184.46,282.74,184.46,282.74Z" style="fill:#92E3A9;stroke:#263238;stroke-linecap:round;stroke-linejoin:round"></path><path d="M160.65,274.28s-21.92,4.39-27.25,6.58-6.26,4.07-4.07,11.9,2.82,32.89,5.64,33.52a36.34,36.34,0,0,0,6.57.63l50.44-.32s7.83,3.45,7.2-7.51-7.52-21.62-15-31.95S173.81,269.9,160.65,274.28Z" style="fill:#263238;stroke:#263238;stroke-linecap:round;stroke-linejoin:round"></path><path d="M176.31,284.31s-35.7,9.71-37.58,10l-1.88.31,1.56,8.15,40.72-11.28Z" style="fill:#92E3A9;stroke:#263238;stroke-linecap:round;stroke-linejoin:round"></path><path d="M124.32,307.17l4.7.94s-3.45-14.41-3.45-21.92,3.13-9.4,8.14-11,24.12-6.89,31-6.89a18.37,18.37,0,0,1,11.59,4.39s-5.32-8.15-7.83-9.09-24.12,3.13-33.2,6.89-12.84,5-13.16,9.09S124.32,307.17,124.32,307.17Z" style="fill:#fff;stroke:#263238;stroke-linecap:round;stroke-linejoin:round"></path></g><g id="freepik--Ball--inject-26"><circle cx="173.72" cy="386.93" r="30.08" transform="translate(-84.25 50.26) rotate(-13.28)" style="fill:#92E3A9;stroke:#263238;stroke-linecap:round;stroke-linejoin:round"></circle><path d="M185,401.58a32.64,32.64,0,0,0-11.23-2,31.57,31.57,0,0,0-21.27,8" style="fill:none;stroke:#263238;stroke-linecap:round;stroke-linejoin:round"></path><path d="M195.22,407.81a30.06,30.06,0,0,0-6.94-4.79" style="fill:none;stroke:#263238;stroke-linecap:round;stroke-linejoin:round"></path><path d="M161.13,388.21a32.61,32.61,0,0,0,12.59,2.49c12.05,0,22.45-6.42,27.24-15.69" style="fill:none;stroke:#263238;stroke-linecap:round;stroke-linejoin:round"></path><path d="M147.87,377.4a28.93,28.93,0,0,0,9.29,8.81" style="fill:none;stroke:#263238;stroke-linecap:round;stroke-linejoin:round"></path><path d="M144.55,390.83a80.8,80.8,0,0,0,29.17,5.11,82,82,0,0,0,27.5-4.48" style="fill:none;stroke:#263238;stroke-linecap:round;stroke-linejoin:round"></path></g></svg>